<svg xmlns="http://www.w3.org/2000/svg" width="25.132" height="25.13" viewBox="0 0 25.132 25.13">
  <g id="Group_1" data-name="Group 1" transform="translate(-2 -2)">
    <path id="primary" d="M1.257,0H18.848a1.256,1.256,0,0,1,1.124,1.818L14.945,11.87a1.257,1.257,0,0,1-1.124.695H1.257A1.256,1.256,0,0,1,0,11.309V1.257A1.257,1.257,0,0,1,1.257,0Z" transform="translate(7.026 4.513)" fill="#fff"/>
    <path id="secondary" d="M19.768,21.361a2.513,2.513,0,1,1-4.354,0H8.459a2.513,2.513,0,1,1-4.294-.1,3.771,3.771,0,0,1-.4-7.226V2.513H1.257A1.257,1.257,0,0,1,1.257,0h3.77A1.257,1.257,0,0,1,6.283,1.257V13.822H20.1a1.257,1.257,0,1,1,0,2.513H5.026a1.257,1.257,0,0,0,0,2.513H20.1a1.257,1.257,0,0,1,0,2.513Z" transform="translate(2 2)" fill="#0d2b3e"/>
    <path id="secondary-2" data-name="secondary" d="M19.768,21.361a2.513,2.513,0,1,1-4.354,0H8.459a2.513,2.513,0,1,1-4.294-.1,3.771,3.771,0,0,1-.4-7.226V2.513H1.257A1.257,1.257,0,0,1,1.257,0h3.77A1.257,1.257,0,0,1,6.283,1.257V13.822H20.1a1.257,1.257,0,1,1,0,2.513H5.026a1.257,1.257,0,0,0,0,2.513H20.1a1.257,1.257,0,0,1,0,2.513Z" transform="translate(2 2)" fill="#0d2b3e"/>
  </g>
</svg>
