<svg xmlns="http://www.w3.org/2000/svg" width="20" height="18" viewBox="0 0 20 18">
  <g id="Group_27" data-name="Group 27" transform="translate(-494 -47)">
    <path id="Path" d="M17.531,0a2,2,0,0,1-.012.221l-1.556,14A2,2,0,0,1,13.976,16H3.556a2,2,0,0,1-1.988-1.779L.012.221A2.022,2.022,0,0,1,0,0H17.531Z" transform="translate(495.234 49)" fill="#a5b3bb"/>
    <path id="secondary" d="M6.293,7.707,4,5.414,1.707,7.707A1,1,0,0,1,.293,6.293L2.585,4,.293,1.707A1,1,0,0,1,1.707.293L4,2.585,6.293.293A1,1,0,0,1,7.707,1.707L5.414,4,7.707,6.293A1,1,0,1,1,6.293,7.707Z" transform="translate(500 54)" fill="#544aff"/>
    <path id="secondary-2" data-name="secondary" d="M2,0H18a2,2,0,0,1,2,2V3a1,1,0,0,1-1,1H1A1,1,0,0,1,0,3V2A2,2,0,0,1,2,0Z" transform="translate(494 47)" fill="#544aff"/>
  </g>
</svg>
